PathFileType	4	(X/Y/Z)	/Users/itak/Documents/Research/Walk-IL/dataset/trc/00351_00011.trc
DataRate	CameraRate	NumFrames	NumMarkers	Units	OrigDataRate	OrigDataStartFrame	OrigNumFrames
100.000000	100.000000	4	53	mm	100.000000	187	751
Frame#	Time	RPSI			LPSI			L3			STRN			T10			C7			CLAV			RBAK			LBAK			LSHO			LUPA			LAEL			LAOL			LWTS			LWPS			LFRA			LIFD			LHPS			LHTS			RSHO			RUPA			RAEL			RAOL			RWTS			RWPS			RFRA			RIFD			RHTS			RHPS			RBHD			LFHD			RFHD			LBHD			LHIP			RHIP			RASI			LASI			LKNE			LTHI			LANK			LTIP			LTOE			LMT1			LMT5			LHEE			RKNE			RTHI			RANK			RTIP			RTOE			RMT1			RMT5			RHEE			
		X1	Y1	Z1	X2	Y2	Z2	X3	Y3	Z3	X4	Y4	Z4	X5	Y5	Z5	X6	Y6	Z6	X7	Y7	Z7	X8	Y8	Z8	X9	Y9	Z9	X10	Y10	Z10	X11	Y11	Z11	X12	Y12	Z12	X13	Y13	Z13	X14	Y14	Z14	X15	Y15	Z15	X16	Y16	Z16	X17	Y17	Z17	X18	Y18	Z18	X19	Y19	Z19	X20	Y20	Z20	X21	Y21	Z21	X22	Y22	Z22	X23	Y23	Z23	X24	Y24	Z24	X25	Y25	Z25	X26	Y26	Z26	X27	Y27	Z27	X28	Y28	Z28	X29	Y29	Z29	X30	Y30	Z30	X31	Y31	Z31	X32	Y32	Z32	X33	Y33	Z33	X34	Y34	Z34	X35	Y35	Z35	X36	Y36	Z36	X37	Y37	Z37	X38	Y38	Z38	X39	Y39	Z39	X40	Y40	Z40	X41	Y41	Z41	X42	Y42	Z42	X43	Y43	Z43	X44	Y44	Z44	X45	Y45	Z45	X46	Y46	Z46	X47	Y47	Z47	X48	Y48	Z48	X49	Y49	Z49	X50	Y50	Z50	X51	Y51	Z51	X52	Y52	Z52	X53	Y53	Z53	

188	1.87	-114.476448059082	960.5678100585938	685.4254150390625	-222.7503356933594	969.5599975585938	758.0697631835938	-152.8437652587891	1030.18359375	718.9357299804688	-293.2271423339844	1204.907470703125	523.1968383789062	-142.6990509033203	1149.126098632812	718.1231689453125	-180.0873413085938	1393.694946289062	676.8751220703125	-268.8764953613281	1331.443603515625	553.65576171875	-93.01982879638672	1254.900512695312	680.0757446289062	-253.0666809082031	1361.099243164062	747.8675537109375	-350.0855407714844	1376.394775390625	713.9999389648438	-385.7242431640625	1268.60693359375	785.8812255859375	-390.7770080566406	1068.558471679688	826.152099609375	-305.3342590332031	1063.875610351562	833.687744140625	-404.6788024902344	809.6259765625	774.7264404296875	-419.2816467285156	810.2493896484375	842.4601440429688	-398.9384765625	964.1738891601562	842.0445556640625	-392.5765380859375	654.0390014648438	795.6229248046875	-408.0766296386719	741.24755859375	853.0386352539062	-419.553466796875	732.31640625	790.05126953125	-84.63072967529297	1375.61767578125	533.692138671875	-29.89796257019043	1309.6103515625	500.6575317382812	-27.38540077209473	1045.277221679688	437.9696044921875	-56.69564819335938	1026.8349609375	525.4649658203125	-211.5533447265625	905.817626953125	342.3675842285156	-153.0924530029297	866.4620361328125	311.8974304199219	-54.84511566162109	992.1100463867188	400.0510559082031	-293.3347473144531	766.7893676757812	280.2918395996094	-264.6129150390625	835.7307739257812	282.4226684570312	-202.5940551757812	804.2703247070312	278.4237365722656	-139.5802612304688	1590.874877929688	579.8978881835938	-328.3822326660156	1596.998779296875	491.8673400878906	-236.662841796875	1590.3486328125	449.412109375	-256.4834289550781	1598.248168945312	664.7822265625	-362.2426452636719	925.8078002929688	739.4918212890625	-70.55689239501953	894.6553955078125	563.2328491210938	-159.0112152099609	924.4580688476562	494.9427490234375	-368.68701171875	947.2001342773438	605.4226684570312	-494.4780578613281	504.13232421875	577.3445434570312	-471.1484985351562	630.9381713867188	617.1448974609375	-511.119140625	78.85966491699219	689.4417114257812	-517.4434204101562	288.646728515625	635.5994873046875	-583.4283447265625	66.07895660400391	488.8015747070312	-510.1324768066406	51.52634811401367	520.9724731445312	-593.348876953125	70.58476257324219	594.8831176757812	-437.4409484863281	64.95506286621094	678.728271484375	-170.4888458251953	434.0138244628906	597.1197509765625	-138.5815124511719	683.7772216796875	522.9207763671875	-162.4881591796875	50.37538528442383	752.2929077148438	-195.8635864257812	316.3424072265625	628.9028930664062	-334.9386901855469	44.14471054077148	652.2091674804688	-325.607177734375	39.37321853637695	720.6486206054688	-220.0473937988281	38.06338500976562	667.2559204101562	-161.178466796875	54.13755035400391	820.4215698242188	
189	1.88	-121.0934066772461	959.6398315429688	681.1204223632812	-230.6711730957031	968.5022583007812	751.61328125	-159.9800109863281	1028.873168945312	713.6969604492188	-296.9031677246094	1203.603271484375	515.7542724609375	-149.2463531494141	1147.800659179688	713.4589233398438	-185.9774475097656	1392.456665039062	671.3695068359375	-273.0885925292969	1330.100219726562	546.7000732421875	-99.04032897949219	1253.588012695312	675.8822021484375	-260.076904296875	1359.746826171875	741.0993041992188	-356.6041259765625	1374.958984375	705.7362060546875	-393.0605163574219	1267.416625976562	777.4490966796875	-397.7818298339844	1067.46826171875	818.2916259765625	-312.5857849121094	1063.375244140625	827.0769653320312	-409.0190734863281	807.7387084960938	768.4498291015625	-425.0404052734375	809.0087280273438	835.8927612304688	-405.6054077148438	963.1358642578125	834.6082763671875	-395.1597595214844	651.7814331054688	790.6604614257812	-413.4388732910156	740.21630859375	847.3683471679688	-423.5911865234375	730.5595092773438	784.2140502929688	-88.43870544433594	1374.269165039062	529.5230102539062	-33.4264030456543	1308.173095703125	497.2301635742188	-30.95672225952148	1044.098266601562	433.469970703125	-60.82643890380859	1025.35595703125	520.69384765625	-215.1793518066406	905.70263671875	336.3270874023438	-156.6681518554688	866.4288940429688	305.8230895996094	-58.35774993896484	991.2352294921875	395.1179504394531	-296.9975891113281	767.1661376953125	273.2065124511719	-268.1513061523438	836.04248046875	275.8434143066406	-206.1378326416016	804.5126342773438	271.8504638671875	-144.4821472167969	1589.740600585938	574.3901977539062	-332.1228332519531	1595.24365234375	483.9602355957031	-239.89599609375	1588.7158203125	442.6828308105469	-262.4463806152344	1597.036865234375	657.7578735351562	-369.7333679199219	924.3756713867188	730.4788818359375	-74.76740264892578	893.6047973632812	559.8226928710938	-161.7125549316406	923.3285522460938	489.7453308105469	-373.6563720703125	945.7616577148438	596.2141723632812	-498.5800170898438	501.6174621582031	566.69873046875	-475.099365234375	628.8092651367188	607.593505859375	-532.2734985351562	72.97126770019531	656.0929565429688	-530.0657958984375	285.5158386230469	613.6304321289062	-594.104736328125	72.34871673583984	451.5881958007812	-523.024658203125	54.39454650878906	486.904052734375	-609.6056518554688	71.54124450683594	557.1574096679688	-458.589599609375	57.73700714111328	648.4896240234375	-172.0856781005859	433.10595703125	594.3080444335938	-140.8402709960938	682.565673828125	519.479736328125	-162.7394714355469	50.50997161865234	752.434326171875	-197.2999725341797	315.3856811523438	627.0038452148438	-335.0044860839844	44.00197219848633	652.218017578125	-325.7892761230469	39.14976501464844	720.6851196289062	-220.1653442382812	38.15377807617188	667.243408203125	-161.4697875976562	54.47184371948242	820.5261840820312	
190	1.89	-127.6943283081055	958.5538940429688	676.5953979492188	-238.5121154785156	967.2650146484375	744.9087524414062	-167.1369934082031	1027.356811523438	708.1997680664062	-300.6134338378906	1202.14111328125	508.2518005371094	-155.8898620605469	1146.306030273438	708.6282348632812	-191.9563293457031	1391.0576171875	665.7349243164062	-277.3054504394531	1328.6083984375	539.6576538085938	-105.1358032226562	1252.074829101562	671.6032104492188	-267.1582946777344	1358.20068359375	734.14501953125	-363.112548828125	1373.322265625	697.3760375976562	-400.414306640625	1266.049926757812	768.8674926757812	-404.8545532226562	1066.199584960938	810.2199096679688	-319.91162109375	1062.620361328125	820.2233276367188	-413.5593566894531	805.7423706054688	761.9605712890625	-430.9522705078125	807.6149291992188	829.0831298828125	-412.3896484375	961.9202270507812	826.9274291992188	-398.1751098632812	649.6074829101562	785.6370849609375	-419.0074157714844	739.0303955078125	841.4747314453125	-427.8207092285156	728.6536865234375	778.18994140625	-92.31216430664062	1372.737670898438	525.2954711914062	-37.002197265625	1306.553588867188	493.7505493164062	-34.42634201049805	1042.702514648438	429.1009826660156	-64.90870666503906	1023.72412109375	516.12060546875	-218.5603179931641	905.1563720703125	330.4288940429688	-159.9533081054688	865.9998779296875	299.9493713378906	-61.74327850341797	990.0899047851562	390.3417053222656	-300.2679748535156	767.0059204101562	266.3159484863281	-271.3454895019531	835.8435668945312	269.4334411621094	-209.3232116699219	804.302734375	265.4920349121094	-149.4302368164062	1588.470581054688	568.812744140625	-335.8773193359375	1593.345947265625	476.0048828125	-243.1548004150391	1586.934814453125	435.9142761230469	-268.4199829101562	1595.688232421875	650.6678466796875	-377.0965270996094	922.6791381835938	721.3705444335938	-79.05203247070312	892.4541625976562	556.1724853515625	-164.5468597412109	922.056884765625	484.436767578125	-378.6793212890625	944.0851440429688	586.9403076171875	-502.7320556640625	498.8724670410156	556.5863647460938	-478.9574584960938	626.2426147460938	598.65625	-551.64111328125	68.37785339355469	622.0220336914062	-541.8422241210938	282.9434814453125	591.6923217773438	-602.8919067382812	79.90901947021484	414.8626708984375	-534.0464477539062	58.69773864746094	452.9244995117188	-623.9307861328125	73.80436706542969	519.3549194335938	-478.0509948730469	51.85382843017578	617.3846435546875	-173.73876953125	432.0888977050781	591.3414916992188	-143.0837097167969	681.2528076171875	515.8444213867188	-163.0066375732422	50.67293167114258	752.625732421875	-198.7499847412109	314.3428955078125	624.976318359375	-335.0697937011719	43.84855270385742	652.2130126953125	-325.9630126953125	38.95125579833984	720.7203979492188	-220.2634582519531	38.25438690185547	667.22119140625	-161.8121185302734	54.89177703857422	820.7030639648438	
191	1.9	-134.2774353027344	957.3141479492188	671.8599853515625	-246.2790679931641	965.8490600585938	737.9697265625	-174.3062591552734	1025.647705078125	702.4577026367188	-304.3523864746094	1200.52294921875	500.6886901855469	-162.6379852294922	1144.649291992188	703.6165161132812	-198.0299530029297	1389.493530273438	659.9547729492188	-281.5223083496094	1326.97412109375	532.5162963867188	-111.3111953735352	1250.373413085938	667.229736328125	-274.3157348632812	1356.46484375	726.9951171875	-369.6241455078125	1371.48388671875	688.9220581054688	-407.7858581542969	1264.503051757812	760.1294555664062	-411.9951477050781	1064.746948242188	801.9337768554688	-327.2889709472656	1061.61865234375	813.1380004882812	-418.3638000488281	803.6812744140625	755.2457885742188	-437.0245361328125	806.06787109375	822.0263061523438	-419.2920532226562	960.5237426757812	818.9988403320312	-401.6484375	647.5228271484375	780.5204467773438	-424.7826538085938	737.6866455078125	835.3446044921875	-432.2573852539062	726.5978393554688	771.9572143554688	-96.25296020507812	1371.0283203125	521.002197265625	-40.61050796508789	1304.76611328125	490.2134399414062	-37.79843902587891	1041.084350585938	424.8659057617188	-68.94389343261719	1021.944519042969	511.7535095214844	-221.6905364990234	904.1839599609375	324.6737060546875	-162.9462127685547	865.1633911132812	294.2875671386719	-64.99861907958984	988.6737670898438	385.726806640625	-303.1532592773438	766.3253173828125	259.6168823242188	-274.1946411132812	835.1469116210938	263.1873779296875	-212.1628875732422	803.6378784179688	259.3507080078125	-154.4228820800781	1587.069213867188	563.1661987304688	-339.6443786621094	1591.327270507812	468.0025329589844	-246.4323120117188	1585.024169921875	429.1075744628906	-274.4048461914062	1594.205932617188	643.5109252929688	-384.3370666503906	920.7263793945312	712.1549682617188	-83.37871551513672	891.2318115234375	552.2966918945312	-167.5171813964844	920.6530151367188	479.0052795410156	-383.7356872558594	942.1808471679688	577.5907592773438	-507.0135192871094	496.0270385742188	546.9622192382812	-482.8665466308594	623.30908203125	590.2826538085938	-568.9735107421875	65.04703521728516	587.6212768554688	-552.6915283203125	280.9285278320312	569.980224609375	-610.001953125	88.65316009521484	379.0825805664062	-543.2885131835938	64.44367218017578	419.3622436523438	-636.3148193359375	77.27043914794922	481.9640197753906	-495.5459899902344	47.35952758789062	585.6891479492188	-175.4163055419922	430.977294921875	588.236083984375	-145.3079833984375	679.8578491210938	512.0161743164062	-163.2971954345703	50.88207626342773	752.8590087890625	-200.1739654541016	313.2372436523438	622.8287963867188	-335.1324157714844	43.67986297607422	652.1917724609375	-326.1273498535156	38.78583145141602	720.7540893554688	-220.3416290283203	38.36404037475586	667.196533203125	-162.2165985107422	55.41216278076172	820.9452514648438	
